# xmcd
#
# Track frame offsets:
#	150
#	35990
#	60765
#	92272
#	126572
#
# Disc length: 2036 seconds
#
# Revision: 4
# Processed by: cddbd v1.5.2PL0 Copyright (c) Steve Scherf et al.
# Submitted via: audiograbber 1.83.01
#
DISCID=3b07f205
DTITLE=SPECIAL OTHERS - BEN
DYEAR=2004
DGENRE=Instrumental
TTITLE0=BEN
TTITLE1=NGORO NGORO
TTITLE2=Peacefultree
TTITLE3=Cacao
TTITLE4=Khechi Khechi
EXTD=YEAR: 2004
EXTT0=
EXTT1=
EXTT2=
EXTT3=
EXTT4=
PLAYORDER=
